<svg width="1200" height="630" viewBox="0 0 1200 630" fill="none" xmlns="http://www.w3.org/2000/svg">
  <defs>
    <linearGradient id="bg-gradient" x1="0%" y1="0%" x2="100%" y2="100%">
      <stop offset="0%" style="stop-color:#3B82F6;stop-opacity:1" />
      <stop offset="100%" style="stop-color:#8B5CF6;stop-opacity:1" />
    </linearGradient>
    <linearGradient id="text-gradient" x1="0%" y1="0%" x2="100%" y2="0%">
      <stop offset="0%" style="stop-color:#1E40AF;stop-opacity:1" />
      <stop offset="100%" style="stop-color:#7C3AED;stop-opacity:1" />
    </linearGradient>
  </defs>
  
  <!-- Background -->
  <rect width="1200" height="630" fill="url(#bg-gradient)"/>
  
  <!-- Background Pattern -->
  <g opacity="0.1">
    <circle cx="100" cy="100" r="50" fill="white"/>
    <circle cx="1100" cy="530" r="80" fill="white"/>
    <circle cx="900" cy="150" r="30" fill="white"/>
    <circle cx="200" cy="500" r="40" fill="white"/>
  </g>
  
  <!-- Main Content Container -->
  <rect x="100" y="100" width="1000" height="430" rx="20" fill="white" fill-opacity="0.95"/>
  
  <!-- Logo Area -->
  <g transform="translate(150, 150)">
    <!-- AI Brain Icon -->
    <circle cx="50" cy="50" r="40" fill="url(#text-gradient)"/>
    <g transform="translate(25, 25)" fill="white">
      <circle cx="15" cy="20" r="3"/>
      <circle cx="35" cy="20" r="3"/>
      <circle cx="50" cy="35" r="3"/>
      <circle cx="25" cy="45" r="3"/>
      <circle cx="40" cy="50" r="3"/>
      <path d="M15 20 L35 20 M35 20 L50 35 M25 45 L40 50 M15 20 L25 45" stroke="white" stroke-width="2" fill="none"/>
    </g>
    
    <!-- Company Name -->
    <text x="120" y="55" font-family="Arial, sans-serif" font-size="48" font-weight="bold" fill="url(#text-gradient)">KOLAB360</text>
  </g>
  
  <!-- Main Headline -->
  <text x="150" y="300" font-family="Arial, sans-serif" font-size="56" font-weight="bold" fill="#1F2937">Transform Your Team's</text>
  <text x="150" y="365" font-family="Arial, sans-serif" font-size="56" font-weight="bold" fill="url(#text-gradient)">Productivity</text>
  
  <!-- Subheadline -->
  <text x="150" y="420" font-family="Arial, sans-serif" font-size="24" fill="#6B7280">AI-Powered Collaboration Platform</text>
  <text x="150" y="450" font-family="Arial, sans-serif" font-size="20" fill="#9CA3AF">Boost productivity by 3x with intelligent insights</text>
  
  <!-- Feature Icons -->
  <g transform="translate(700, 250)">
    <!-- Message Icon -->
    <rect x="0" y="0" width="60" height="60" rx="15" fill="#EFF6FF"/>
    <rect x="15" y="15" width="30" height="20" rx="5" fill="#3B82F6"/>
    <rect x="12" y="25" width="6" height="2" fill="#3B82F6"/>
    
    <!-- Task Icon -->
    <rect x="80" y="0" width="60" height="60" rx="15" fill="#F0FDF4"/>
    <rect x="95" y="15" width="30" height="30" rx="5" fill="#10B981"/>
    <path d="M100 25 L105 30 L115 20" stroke="white" stroke-width="3" fill="none"/>
    
    <!-- AI Icon -->
    <rect x="160" y="0" width="60" height="60" rx="15" fill="#FDF4FF"/>
    <circle cx="190" cy="30" r="15" fill="#8B5CF6"/>
    <circle cx="185" cy="25" r="2" fill="white"/>
    <circle cx="195" cy="25" r="2" fill="white"/>
    <path d="M185 35 Q190 40 195 35" stroke="white" stroke-width="2" fill="none"/>
    
    <!-- Calendar Icon -->
    <rect x="240" y="0" width="60" height="60" rx="15" fill="#FEF3F2"/>
    <rect x="255" y="15" width="30" height="30" rx="3" fill="#EF4444"/>
    <rect x="260" y="10" width="2" height="10" fill="#EF4444"/>
    <rect x="278" y="10" width="2" height="10" fill="#EF4444"/>
  </g>
  
  <!-- Stats -->
  <g transform="translate(150, 480)" fill="#6B7280" font-family="Arial, sans-serif" font-size="16">
    <text x="0" y="0">★ 4.8/5 Rating</text>
    <text x="150" y="0">👥 50,000+ Teams</text>
    <text x="300" y="0">🌍 150+ Countries</text>
  </g>
</svg>